<svg width="38" height="35" viewBox="0 0 38 35" fill="none" xmlns="http://www.w3.org/2000/svg">
<mask id="mask0_72_425" style="mask-type:luminance" maskUnits="userSpaceOnUse" x="0" y="0" width="38" height="35">
<path d="M0 0H37.1875V35H0V0Z" fill="white"/>
</mask>
<g mask="url(#mask0_72_425)">
<path d="M37.1875 5.5011L0 5.50285V24.115L18.6034 35.0017L37.1884 24.1202L37.1875 5.5011Z" fill="black"/>
<path d="M21.1636 20.727V21.9012C21.1634 22.0243 21.2111 22.1426 21.2966 22.2311C21.3386 22.2744 21.3888 22.3089 21.4442 22.3326C21.4996 22.3564 21.5592 22.3689 21.6195 22.3694H24.9112V21.9056H21.6825C21.6672 21.9054 21.6525 21.8995 21.6414 21.889C21.6304 21.8786 21.6236 21.8646 21.6221 21.8496V20.7917C21.6247 20.7737 21.6337 20.7572 21.6475 20.7454C21.6611 20.7337 21.6786 20.7274 21.6965 20.7279H24.9121V20.2641H21.6335C21.573 20.264 21.513 20.2759 21.4571 20.2992C21.4012 20.3225 21.3505 20.3566 21.308 20.3997C21.221 20.4879 21.172 20.6066 21.1715 20.7305M20.1644 21.1181H17.2637C17.249 21.1189 17.2344 21.1151 17.2218 21.1073C17.2093 21.0995 17.1995 21.088 17.1937 21.0744C17.1899 21.0655 17.1878 21.056 17.1876 21.0464V20.7314C17.1877 20.7163 17.1922 20.7017 17.2006 20.6892C17.2091 20.6768 17.221 20.6671 17.2349 20.6614C17.244 20.6577 17.2539 20.6559 17.2637 20.6561H20.5537V20.2624H17.1867C17.1268 20.2631 17.0677 20.2758 17.0128 20.2999C16.9579 20.3239 16.9085 20.3588 16.8674 20.4024C16.7825 20.4903 16.7359 20.6083 16.7379 20.7305V21.0455C16.7361 21.1683 16.7823 21.2869 16.8665 21.3762C16.9078 21.42 16.9574 21.4551 17.0123 21.4796C17.0673 21.5041 17.1266 21.5174 17.1867 21.5189H20.0874C20.0971 21.5186 20.1068 21.5204 20.1158 21.524C20.1248 21.5276 20.133 21.533 20.1399 21.5399C20.1471 21.5466 20.1529 21.5547 20.157 21.5637C20.161 21.5727 20.1632 21.5825 20.1635 21.5924V21.9091C20.1629 21.9291 20.1544 21.9479 20.1399 21.9616C20.1329 21.9683 20.1247 21.9736 20.1157 21.977C20.1067 21.9805 20.097 21.9821 20.0874 21.9817H16.793V22.3746H20.1644C20.2247 22.3748 20.2844 22.3629 20.34 22.3396C20.3956 22.3163 20.446 22.2821 20.4881 22.239C20.5751 22.1512 20.6238 22.0327 20.6237 21.9091V21.5924C20.6236 21.469 20.5752 21.3506 20.489 21.2625C20.4468 21.2193 20.3965 21.1849 20.3409 21.1613C20.2853 21.1377 20.2256 21.1254 20.1652 21.1251M15.7439 21.2712C15.7442 21.2905 15.7373 21.3092 15.7246 21.3237C15.712 21.3378 15.6945 21.3466 15.6756 21.3482H12.7575V20.7174H15.6686C15.679 20.7176 15.6892 20.7199 15.6986 20.7241C15.7081 20.7283 15.7166 20.7344 15.7237 20.7419C15.7377 20.7567 15.7456 20.7769 15.7465 20.7979L15.7439 21.2712ZM15.7596 21.6475C15.8785 21.6429 15.9907 21.5917 16.072 21.5049C16.1543 21.4172 16.1997 21.3013 16.1989 21.1811V20.7235C16.1985 20.6009 16.1505 20.4832 16.065 20.3954C16.0228 20.3525 15.9725 20.3185 15.9171 20.2952C15.8617 20.272 15.8022 20.2599 15.7421 20.2597H12.3034V22.3641H12.7584V21.8102H15.2915C15.3519 21.8105 15.4116 21.8228 15.4672 21.8464C15.5228 21.87 15.5731 21.9044 15.6152 21.9476C15.7017 22.036 15.7501 22.1547 15.75 22.2784V22.3615H16.2067C16.2067 22.2129 16.1648 22.0674 16.086 21.9415C16.0079 21.8163 15.8956 21.7161 15.7622 21.6527M11.3032 21.8251C11.3027 21.8447 11.2949 21.8634 11.2814 21.8776C11.2683 21.8922 11.2502 21.9013 11.2306 21.903H8.44987C8.43476 21.9023 8.42042 21.8961 8.40962 21.8855C8.39851 21.8749 8.39166 21.8606 8.39037 21.8452V20.7882C8.39256 20.7703 8.40128 20.7538 8.41487 20.7419C8.4284 20.73 8.44591 20.7238 8.46387 20.7244H11.2192C11.24 20.7247 11.2598 20.7332 11.2744 20.748C11.2892 20.7629 11.2971 20.783 11.298 20.804L11.3032 21.8251ZM11.3032 20.2597H8.39737C8.33673 20.2595 8.27665 20.2714 8.22073 20.2949C8.16481 20.3183 8.11418 20.3528 8.07187 20.3962C7.98485 20.4843 7.93611 20.6032 7.93625 20.727V21.9012C7.93718 22.0245 7.98615 22.1425 8.07275 22.2302C8.1152 22.2729 8.16565 22.3067 8.2212 22.3299C8.27676 22.353 8.33632 22.3649 8.3965 22.365H11.3006C11.3607 22.3652 11.4201 22.3533 11.4754 22.33C11.5308 22.3067 11.5808 22.2725 11.6226 22.2294C11.7088 22.1417 11.7567 22.0233 11.7556 21.9004V20.7252C11.7562 20.6032 11.7091 20.4858 11.6244 20.398C11.5831 20.355 11.5336 20.3207 11.479 20.297C11.4243 20.2732 11.3655 20.2606 11.3059 20.2597M6.944 21.2712C6.9443 21.2905 6.93744 21.3092 6.92475 21.3237C6.91213 21.3378 6.8946 21.3466 6.87575 21.3482H3.9655V20.7174H6.86612C6.88659 20.7179 6.90605 20.7264 6.92037 20.741C6.93525 20.7567 6.94312 20.776 6.94312 20.797V21.2704L6.944 21.2712ZM6.944 20.2597H3.5105V22.365H3.9655V21.8102H6.9405C7.0008 21.8105 7.06053 21.7986 7.11615 21.7753C7.17177 21.752 7.22213 21.7178 7.26425 21.6746C7.35084 21.587 7.39928 21.4688 7.399 21.3456V20.7244C7.39885 20.601 7.35049 20.4826 7.26425 20.3945C7.22197 20.3516 7.17155 20.3176 7.11596 20.2945C7.06037 20.2713 7.00071 20.2595 6.9405 20.2597M33.6787 20.6544V20.2606H29.6485V22.3667H33.6779V21.973H30.1035V21.5092H33.6779V21.1172H30.1035V20.6544H33.6787ZM28.658 21.1137H25.8965V20.2571H25.4424V22.3624H25.8965V21.5766H28.658V22.3624H29.113V20.2571H28.658V21.1146V21.1137ZM25.305 12.8529C25.235 13.027 25.1142 13.1749 24.9611 13.2799C24.8071 13.384 24.626 13.4391 24.4414 13.4374C23.8394 13.4374 23.7492 12.964 23.7492 12.6805V10.8264H23.233V12.6079C23.233 13.811 24.1185 13.9002 24.3906 13.9002C24.7301 13.9072 25.06 13.7777 25.3094 13.5424V13.8285H25.8335V10.8264H25.3172L25.305 12.8529ZM31.71 11.1484C31.6969 11.1326 31.3766 10.7704 30.9636 10.7704C30.5996 10.7704 30.2444 11.1274 30.0449 11.3759V10.8264H29.5199V13.8337H30.044V12.0374C30.1752 11.8072 30.5497 11.2831 30.8595 11.2831C31.122 11.2831 31.3845 11.5815 31.3932 11.5841L31.71 11.1484ZM21.413 10.7704C20.6019 10.7704 19.9902 11.3864 19.9902 12.3235C19.9902 12.9692 20.419 13.8941 21.5652 13.8941C21.9975 13.8985 22.4175 13.7489 22.7535 13.4715L22.7832 13.4417V12.831L22.6231 12.9876C22.3418 13.2426 21.9804 13.3914 21.6011 13.4085C20.9676 13.4085 20.5249 13.0322 20.5249 12.3392H22.841V12.2299C22.841 11.4896 22.3947 10.7704 21.413 10.7704ZM20.5984 11.8597C20.6432 11.6809 20.749 11.5234 20.8976 11.4144C21.045 11.3068 21.2258 11.2553 21.4077 11.2691C22.0255 11.2691 22.1952 11.648 22.246 11.8597H20.5984ZM27.6824 10.7704C26.8712 10.7704 26.2596 11.3864 26.2596 12.3235C26.2596 12.9692 26.6875 13.8941 27.8346 13.8941C28.2669 13.8985 28.6869 13.7489 29.0229 13.4715L29.0526 13.4417V12.831L28.8925 12.9876C28.6112 13.2426 28.2498 13.3914 27.8705 13.4085C27.237 13.4085 26.7951 13.0322 26.7951 12.3392H29.1077V12.2299C29.1077 11.4896 28.6606 10.7704 27.6789 10.7704M26.8686 11.8597C26.9132 11.6806 27.0191 11.5228 27.1679 11.4135C27.3153 11.3061 27.4962 11.2549 27.678 11.2691C28.2957 11.2691 28.4655 11.648 28.5162 11.8597H26.8686ZM19.0697 11.858H17.1421V10.3687H16.6241V13.8276H17.1421V12.3244H19.0697L19.068 13.8276H19.5869V10.3687H19.068L19.0697 11.8589V11.858ZM10.038 12.5282L10.5271 11.2271L11.0521 12.5221L10.038 12.5282ZM11.0075 10.3731H10.0135L8.62137 13.839H9.54012L9.80262 13.1591H11.319L11.5981 13.839H12.5169L11.0066 10.374L11.0075 10.3731ZM7.56875 13.818V10.9987H8.792V10.3425H5.48012V10.9987H6.70162V13.818H7.56875ZM15.7342 13.783C15.0675 13.9335 14.2117 13.979 13.5949 13.6894C13.0699 13.454 12.7417 12.8879 12.6761 12.3436C12.635 12.0269 12.6787 11.7049 12.803 11.4126C12.9272 11.1195 13.1267 10.8666 13.3822 10.6811C14.0009 10.2305 14.9826 10.2436 15.6572 10.5577V11.2446C15.1462 11.0057 14.3797 10.8649 13.8897 11.2446C13.7383 11.3689 13.6224 11.531 13.5537 11.7145C13.4846 11.8989 13.4647 12.0981 13.496 12.2925C13.5273 12.4869 13.6087 12.6698 13.7322 12.8231C13.8565 12.9754 14.0175 13.0909 14.1995 13.1591C14.4471 13.2344 14.707 13.2571 14.9642 13.2239V12.6639H14.6282V11.9962H15.7316V13.7865L15.7342 13.783Z" fill="white"/>
<path d="M18.1878 16.7519H11.5535V17.3766H18.1878V16.751V16.7519Z" fill="#007E53"/>
<path d="M25.6358 16.7519H18.9998V17.3766H25.6349V16.751L25.6358 16.7519Z" fill="#D5001C"/>
<path d="M37.1875 0L0 0.00175V4.66725L37.1875 4.6725V0Z" fill="black"/>
<path d="M7.22224 1.2845H8.42625V1.65113H7.6195V2.163H8.35625V2.50425H7.6195V3.388H7.22575L7.22312 1.2845H7.22224ZM8.687 2.331C8.687 1.47 8.87337 1.24863 9.485 1.24863C10.0957 1.24863 10.2821 1.47 10.2821 2.331C10.2821 3.15875 10.1264 3.42475 9.485 3.42475C8.84362 3.42475 8.687 3.15875 8.687 2.331ZM9.86825 2.324C9.86825 1.71588 9.81925 1.61525 9.485 1.61525C9.14987 1.61525 9.10175 1.71588 9.10175 2.324C9.10175 3.01963 9.15162 3.09838 9.485 3.09838C9.8175 3.09838 9.86825 3.01963 9.86825 2.324ZM10.6277 1.2845H11.3724C11.8046 1.2845 12.0024 1.44113 12.0024 1.96088C12.0024 2.35113 11.8851 2.53138 11.6532 2.58738L12.0627 3.38975H11.6252L11.27 2.66H11.0206V3.38975H10.6269L10.6277 1.2845ZM11.0215 1.65113V2.31875H11.3172C11.5185 2.31875 11.5902 2.28813 11.5902 1.9775C11.5902 1.69488 11.5202 1.65375 11.3059 1.65375L11.0215 1.65113ZM12.3471 3.388L12.4407 1.2845H12.9097L13.3472 2.6845L13.7655 1.2845H14.2354L14.3404 3.388H13.9571L13.8932 2.0055L13.4662 3.39063H13.1959L12.7645 2.00463L12.7067 3.39063L12.3471 3.388ZM14.7184 1.2845H15.1121V2.7195C15.1121 3.00738 15.2136 3.09838 15.4569 3.09838C15.6992 3.09838 15.8025 3.00738 15.8025 2.72038V1.2845H16.1962V2.71163C16.1962 3.1815 15.9994 3.42475 15.4569 3.42475C14.9135 3.42475 14.714 3.1815 14.714 2.71163L14.7184 1.2845ZM16.6241 1.2845H17.0179V3.06338H17.8124V3.388H16.6206L16.6241 1.2845ZM18.6812 1.2845H19.1712L19.7689 3.388H19.3594L19.2491 2.98725H18.557L18.4494 3.388H18.0827L18.6812 1.2845ZM18.6497 2.653H19.1546L18.8991 1.71675L18.6497 2.653ZM20.706 1.2845H21.9293V1.65113H21.1032V2.163H21.8601V2.50425H21.1032V3.06425H21.9293V3.388H20.706V1.2845ZM22.7859 1.2845H24.2296V1.65113H23.7046V3.388H23.3109V1.65113H22.7859V1.2845ZM24.5586 1.2845H25.7828V1.65113H24.9559V2.163H25.7145V2.50425H24.9576V3.06425H25.7836V3.388H24.5595L24.5586 1.2845ZM26.6578 1.2845H27.1478L27.7454 3.388H27.3359L27.2256 2.98725H26.5335L26.4259 3.388H26.0593L26.6578 1.2845ZM26.6245 2.653H27.1364L26.8739 1.71675L26.6245 2.653ZM28.0184 3.388L28.1103 1.2845H28.5766L29.015 2.6845L29.4341 1.2845H29.9031L30.0073 3.388H29.624L29.5601 2.0055L29.1331 3.39063H28.8628L28.4314 2.00463L28.3736 3.39063L28.0184 3.388Z" fill="white"/>
</g>
</svg>
