<svg width="43" height="31" viewBox="0 0 43 31" fill="none" xmlns="http://www.w3.org/2000/svg">
<g clip-path="url(#clip0_118_183)">
<path d="M0 0H43V31H0V0Z" fill="#012169"/>
<path d="M5.03906 0L21.4328 11.6896L37.7594 0H43V4.00417L26.875 15.5646L43 27.0604V31H37.625L21.5 19.4396L5.44219 31H0V27.125L16.0578 15.6292L0 4.13333V0H5.03906Z" fill="white"/>
<path d="M28.4875 18.1479L43 28.4167V31L24.7922 18.1479H28.4875ZM16.125 19.4396L16.5281 21.7L3.62813 31H0L16.125 19.4396ZM43 0V0.19375L26.2703 12.3354L26.4047 9.49375L39.6406 0H43ZM0 0L16.0578 11.3667H12.0266L0 2.7125V0Z" fill="#C8102E"/>
<path d="M16.1922 0V31H26.9422V0H16.1922ZM0 10.3333V20.6667H43V10.3333H0Z" fill="white"/>
<path d="M0 12.4646V18.6646H43V12.4646H0ZM18.3422 0V31H24.7922V0H18.3422Z" fill="#C8102E"/>
</g>
<defs>
<clipPath id="clip0_118_183">
<rect width="43" height="31" rx="1" fill="white"/>
</clipPath>
</defs>
</svg>
