<svg width="30" height="29" viewBox="0 0 30 29" fill="none" xmlns="http://www.w3.org/2000/svg">
<ellipse cx="15.1815" cy="14.6087" rx="14.6603" ry="14.2609" fill="#046BE3"/>
<path d="M18.9366 19.807C19.1956 20.2916 19.0166 20.9022 18.5009 21.0918C17.7302 21.3751 16.9126 21.5173 16.0869 21.5086C14.9296 21.4965 13.7942 21.1884 12.7871 20.6132C11.7799 20.0379 10.9339 19.2144 10.3282 18.2196C9.72252 17.2249 9.37696 16.0913 9.32386 14.9252C9.27075 13.759 9.51184 12.5983 10.0246 11.5517C10.5373 10.5052 11.3049 9.60687 12.2555 8.94095C13.2062 8.27504 14.3088 7.86326 15.4601 7.74417C16.281 7.65925 17.1076 7.72509 17.9004 7.93566C18.4318 8.07682 18.6662 8.66896 18.4523 9.17552L18.0783 10.0611C17.8625 10.5721 17.2703 10.7954 16.7215 10.7146C16.4043 10.668 16.0814 10.6607 15.7601 10.6939C15.1035 10.7618 14.4747 10.9967 13.9325 11.3764C13.3904 11.7562 12.9527 12.2685 12.6603 12.8653C12.3679 13.4622 12.2304 14.1241 12.2607 14.7891C12.2909 15.4542 12.488 16.1006 12.8334 16.6679C13.1788 17.2352 13.6613 17.7049 14.2357 18.0329C14.81 18.3609 15.4575 18.5366 16.1175 18.5436C16.4404 18.5469 16.7611 18.5099 17.0725 18.4342C17.6119 18.303 18.2226 18.4712 18.4843 18.9608L18.9366 19.807Z" fill="white"/>
<rect x="10.2942" y="14.1486" width="7.81881" height="1.84011" rx="0.920056" fill="white"/>
</svg>
