<svg width="32" height="32" viewBox="0 0 32 32" fill="none" xmlns="http://www.w3.org/2000/svg">
<circle cx="16" cy="16" r="16" fill="#DC223A"/>
<path d="M20.0604 21.505C20.3337 21.9965 20.1492 22.6232 19.6204 22.8144C18.7603 23.1254 17.8457 23.2816 16.922 23.2723C15.6532 23.2595 14.4086 22.9348 13.3045 22.3286C12.2004 21.7223 11.2729 20.8543 10.6089 19.8059C9.94494 18.7574 9.56611 17.5628 9.5079 16.3337C9.44968 15.1046 9.71398 13.8813 10.2761 12.7782C10.8381 11.6752 11.6796 10.7284 12.7218 10.0266C13.7639 9.32473 14.9726 8.89074 16.2348 8.76521C17.1557 8.67364 18.083 8.74842 18.9705 8.98278C19.5129 9.12599 19.7532 9.73136 19.5277 10.245L19.0693 11.2887C18.8506 11.7864 18.2738 12.0057 17.7379 11.9147C17.3518 11.8491 16.9567 11.835 16.5636 11.8741C15.8438 11.9457 15.1545 12.1932 14.5602 12.5935C13.9659 12.9937 13.486 13.5336 13.1655 14.1627C12.8449 14.7917 12.6942 15.4894 12.7274 16.1903C12.7606 16.8912 12.9766 17.5725 13.3553 18.1704C13.7339 18.7683 14.2628 19.2633 14.8925 19.6091C15.5221 19.9548 16.232 20.14 16.9555 20.1473C17.3512 20.1513 17.7439 20.102 18.1227 20.0021C18.647 19.8638 19.2397 20.0287 19.5032 20.5026L20.0604 21.505Z" fill="white"/>
<rect x="11.5" y="15.5151" width="7" height="1.93939" rx="0.969697" fill="white"/>
<path fill-rule="evenodd" clip-rule="evenodd" d="M16 32C24.8366 32 32 24.8366 32 16C32 7.16347 24.8366 0 16 0C7.16343 0 0 7.16347 0 16C0 24.8366 7.16343 32 16 32ZM20.9914 7.45348C21.2344 6.59045 20.3969 6.08011 19.632 6.62505L8.95449 14.2317C8.12497 14.8226 8.25545 16 9.15049 16H11.9622V15.9782H17.442L12.977 17.5537L11.0086 24.5466C10.7656 25.4096 11.6031 25.9199 12.368 25.375L23.0455 17.7684C23.875 17.1774 23.7445 16 22.8495 16H18.5857L20.9914 7.45348Z" fill="white"/>
</svg>
