<svg width="22" height="22" viewBox="0 0 22 22" fill="none" xmlns="http://www.w3.org/2000/svg">
<ellipse cx="10.6452" cy="11" rx="10.6452" ry="11" fill="#046BE3"/>
<path d="M13.2875 14.8418C13.5257 15.3152 13.3553 15.9042 12.8535 16.0744C12.354 16.2438 11.8306 16.3281 11.3028 16.3222C10.4624 16.3129 9.63798 16.0752 8.90666 15.6315C8.17534 15.1878 7.56104 14.5526 7.12124 13.7853C6.68143 13.018 6.43051 12.1437 6.39195 11.2442C6.35339 10.3447 6.52845 9.44937 6.90075 8.64209C7.27306 7.83481 7.83043 7.14192 8.5207 6.62827C9.21098 6.11462 10.0116 5.79701 10.8476 5.70514C11.3689 5.64786 11.8934 5.67952 12.4018 5.797C12.9211 5.917 13.1464 6.4919 12.9496 6.98716L12.8528 7.23062C12.6416 7.76199 12.0199 7.98658 11.4485 7.96625C11.321 7.96171 11.1931 7.96639 11.0654 7.98041C10.5887 8.0328 10.1321 8.21393 9.73842 8.50686C9.34477 8.79978 9.02691 9.19492 8.81459 9.6553C8.60227 10.1157 8.50244 10.6262 8.52443 11.1392C8.54642 11.6522 8.68952 12.1508 8.94033 12.5884C9.19114 13.026 9.54146 13.3882 9.95852 13.6413C10.3756 13.8943 10.8457 14.0298 11.325 14.0352C11.4517 14.0366 11.5779 14.0289 11.7028 14.0123C12.2727 13.9366 12.9165 14.1045 13.1749 14.6181L13.2875 14.8418Z" fill="white"/>
<rect x="7.09668" y="10.6451" width="5.67742" height="1.41936" rx="0.709678" fill="white"/>
</svg>
