<svg width="24" height="24" viewBox="0 0 24 24" fill="none" xmlns="http://www.w3.org/2000/svg">
<path d="M11.9997 19.6391C7.78077 19.6391 4.36084 16.2192 4.36084 12.0002C4.36084 7.78126 7.78077 4.36133 11.9997 4.36133C16.2187 4.36133 19.6386 7.78126 19.6386 12.0002C19.6386 16.2192 16.2187 19.6391 11.9997 19.6391ZM11.9997 18.1113C13.6205 18.1113 15.1749 17.4675 16.3209 16.3214C17.467 15.1754 18.1108 13.621 18.1108 12.0002C18.1108 10.3794 17.467 8.82507 16.3209 7.67901C15.1749 6.53295 13.6205 5.88911 11.9997 5.88911C10.379 5.88911 8.82458 6.53295 7.67852 7.67901C6.53247 8.82507 5.88862 10.3794 5.88862 12.0002C5.88862 13.621 6.53247 15.1754 7.67852 16.3214C8.82458 17.4675 10.379 18.1113 11.9997 18.1113ZM10.9471 9.26168L14.6741 11.7458C14.716 11.7737 14.7504 11.8116 14.7742 11.8559C14.7979 11.9003 14.8104 11.9499 14.8104 12.0002C14.8104 12.0506 14.7979 12.1001 14.7742 12.1445C14.7504 12.1889 14.716 12.2267 14.6741 12.2546L10.9463 14.7388C10.9004 14.7692 10.847 14.7867 10.7919 14.7893C10.7368 14.7919 10.6821 14.7795 10.6334 14.7535C10.5848 14.7275 10.5441 14.6889 10.5157 14.6416C10.4873 14.5944 10.4721 14.5403 10.472 14.4851V9.51529C10.4721 9.46002 10.4871 9.40582 10.5156 9.35845C10.5441 9.31108 10.5849 9.27232 10.6336 9.24629C10.6824 9.22027 10.7373 9.20795 10.7925 9.21066C10.8477 9.21337 10.9011 9.231 10.9471 9.26168Z" fill="#07090D"/>
</svg>
