<svg width="127" height="122" viewBox="0 0 127 122" fill="none" xmlns="http://www.w3.org/2000/svg">
<path d="M75.435 121H57.2986L80.8555 51.1819H103.321L126.878 121H108.742L92.3441 68.7728H91.7986L75.435 121ZM73.0146 93.5228H110.924V106.341H73.0146V93.5228Z" fill="#F9364F"/>
<path d="M31.9776 51.1819H48.614V99.4546C48.5913 103.977 47.5117 107.932 45.3754 111.318C43.239 114.682 40.2845 117.296 36.5117 119.159C32.7617 121.023 28.4208 121.955 23.489 121.955C19.1254 121.955 15.1595 121.193 11.5913 119.671C8.04582 118.148 5.21628 115.784 3.10264 112.58C1.01173 109.375 -0.0223607 105.273 0.000366568 100.273H16.8072C16.8754 102.068 17.2163 103.602 17.8299 104.875C18.4663 106.125 19.3413 107.068 20.4549 107.705C21.5685 108.341 22.8981 108.659 24.4436 108.659C26.0572 108.659 27.4208 108.318 28.5345 107.636C29.6481 106.932 30.489 105.898 31.0572 104.534C31.6481 103.171 31.9549 101.477 31.9776 99.4546V51.1819Z" fill="#F9364F"/>
<path d="M122.574 36.0909C122.574 43.7728 121.097 50.2841 118.142 55.625C115.188 60.9659 111.188 65.0228 106.142 67.7955C101.12 70.5682 95.4833 71.9546 89.2333 71.9546C82.9606 71.9546 77.3129 70.5568 72.2901 67.7614C67.2674 64.9659 63.2788 60.9091 60.3242 55.5909C57.3924 50.25 55.9265 43.75 55.9265 36.0909C55.9265 28.4091 57.3924 21.8977 60.3242 16.5568C63.2788 11.2159 67.2674 7.15911 72.2901 4.38638C77.3129 1.61366 82.9606 0.227295 89.2333 0.227295C95.4833 0.227295 101.12 1.61366 106.142 4.38638C111.188 7.15911 115.188 11.2159 118.142 16.5568C121.097 21.8977 122.574 28.4091 122.574 36.0909ZM105.324 36.0909C105.324 31.5455 104.677 27.7046 103.381 24.5682C102.108 21.4318 100.267 19.0568 97.8583 17.4432C95.472 15.8296 92.597 15.0227 89.2333 15.0227C85.8924 15.0227 83.0174 15.8296 80.6083 17.4432C78.1992 19.0568 76.347 21.4318 75.0515 24.5682C73.7788 27.7046 73.1424 31.5455 73.1424 36.0909C73.1424 40.6364 73.7788 44.4773 75.0515 47.6137C76.347 50.75 78.1992 53.125 80.6083 54.7387C83.0174 56.3523 85.8924 57.1591 89.2333 57.1591C92.597 57.1591 95.472 56.3523 97.8583 54.7387C100.267 53.125 102.108 50.75 103.381 47.6137C104.677 44.4773 105.324 40.6364 105.324 36.0909Z" fill="#F9364F"/>
<path d="M3.61401 71.0001V1.18188H20.489V57.2955H49.5345V71.0001H3.61401Z" fill="#F9364F"/>
</svg>
