<svg width="60" height="45" viewBox="0 0 60 45" fill="none" xmlns="http://www.w3.org/2000/svg">
<g clip-path="url(#clip0_72_249)">
<path d="M24 0H60V45H24V0Z" fill="#FF0000"/>
<path d="M0 0H24V45H0V0Z" fill="#006600"/>
<path fill-rule="evenodd" clip-rule="evenodd" d="M31.8281 28.7063C28.8 28.6125 14.9531 19.9688 14.8594 18.5813L15.6188 17.3156C16.9969 19.3125 31.1531 27.7219 32.55 27.4219L31.8281 28.7063Z" fill="#FFFF00" stroke="black" stroke-width="0.6" stroke-linecap="round" stroke-linejoin="round"/>
<path fill-rule="evenodd" clip-rule="evenodd" d="M15.4594 17.1375C15.1875 17.8688 19.0781 20.2688 23.7469 23.1188C28.425 25.9594 32.4563 27.7125 32.7469 27.4688L32.8875 27.2063C32.8313 27.3 32.7 27.3281 32.4844 27.2625C31.2188 26.8969 27.9281 25.3875 23.85 22.9125C19.7625 20.4375 16.2188 18.1594 15.6656 17.1938C15.6225 17.1032 15.6032 17.0032 15.6094 16.9031H15.5906L15.4781 17.1094L15.4594 17.1375ZM31.8938 28.7438C31.8469 28.8375 31.7438 28.8375 31.5656 28.8188C30.4406 28.6969 27.0094 27.0281 22.95 24.6C18.225 21.7688 14.325 19.2 14.7563 18.525L14.8688 18.3188L14.8875 18.3281C14.5125 19.4719 22.5844 24.0844 23.0625 24.3844C27.7313 27.2719 31.6688 28.9688 32.0156 28.5281L31.8938 28.7438Z" fill="#FFFF00"/>
<path fill-rule="evenodd" clip-rule="evenodd" d="M24.0188 19.425C27.0375 19.3969 30.7688 19.0125 32.925 18.15L32.4563 17.4C31.1906 18.1031 27.4406 18.5719 23.9906 18.6375C19.9219 18.6 17.0438 18.2156 15.6 17.25L15.1688 18.0563C17.8125 19.1813 20.5313 19.4156 24.0188 19.425Z" fill="#FFFF00" stroke="black" stroke-width="0.6" stroke-linecap="round" stroke-linejoin="round"/>
<path fill-rule="evenodd" clip-rule="evenodd" d="M33.0469 18.1688C32.9719 18.2906 31.5656 18.7688 29.5031 19.125C27.685 19.4005 25.8483 19.5353 24.0094 19.5281C22.2475 19.5348 20.4872 19.422 18.7406 19.1906C16.575 18.8531 15.4594 18.3844 15.0375 18.2156L15.1406 18.0094C16.3312 18.4781 17.4562 18.7594 18.7687 18.9656C20.5026 19.1998 22.2504 19.3157 24 19.3125C25.8294 19.3144 27.6563 19.1797 29.4656 18.9094C31.575 18.5625 32.7281 18.1219 32.8969 17.925L33.0469 18.1781V18.1688ZM32.6344 17.4094C32.4094 17.5969 31.2656 18 29.2594 18.3188C27.5269 18.5694 25.7786 18.6947 24.0281 18.6938C21.9656 18.6938 20.2687 18.5438 18.9844 18.3563C16.9406 18.0938 15.8531 17.6063 15.4594 17.475L15.5812 17.2688C15.8906 17.4281 16.9312 17.85 19.0031 18.1406C20.6687 18.3637 22.3477 18.4703 24.0281 18.4594C25.7661 18.4599 27.5019 18.3346 29.2219 18.0844C31.2375 17.8031 32.325 17.2969 32.4937 17.1656L32.6344 17.4094ZM14.0906 23.0625C15.9469 24.0656 20.0812 24.5625 23.9906 24.6C27.5531 24.6094 32.1844 24.0563 33.9187 23.1375L33.8719 22.1344C33.3281 22.9781 28.3594 23.7938 23.9531 23.7656C19.5469 23.7281 15.45 23.0531 14.0812 22.1719V23.0625" fill="#FFFF00"/>
<path d="M14.0906 23.0625C15.9469 24.0656 20.0812 24.5625 23.9906 24.6C27.5531 24.6094 32.1844 24.0563 33.9187 23.1375L33.8719 22.1344C33.3281 22.9781 28.3594 23.7938 23.9531 23.7656C19.5469 23.7281 15.45 23.0531 14.0812 22.1719V23.0625M33.0469 18.1688C32.9719 18.2906 31.5656 18.7688 29.5031 19.125C27.685 19.4005 25.8483 19.5353 24.0094 19.5281C22.2475 19.5348 20.4872 19.422 18.7406 19.1906C16.575 18.8531 15.4594 18.3844 15.0375 18.2156L15.1406 18.0094C16.3312 18.4781 17.4562 18.7594 18.7687 18.9656C20.5026 19.1998 22.2504 19.3157 24 19.3125C25.8294 19.3144 27.6563 19.1797 29.4656 18.9094C31.575 18.5625 32.7281 18.1219 32.8969 17.925L33.0469 18.1781V18.1688ZM32.6344 17.4094C32.4094 17.5969 31.2656 18 29.2594 18.3188C27.5269 18.5694 25.7786 18.6947 24.0281 18.6938C21.9656 18.6938 20.2687 18.5438 18.9844 18.3563C16.9406 18.0938 15.8531 17.6063 15.4594 17.475L15.5812 17.2688C15.8906 17.4281 16.9312 17.85 19.0031 18.1406C20.6687 18.3637 22.3477 18.4703 24.0281 18.4594C25.7661 18.4599 27.5019 18.3346 29.2219 18.0844C31.2375 17.8031 32.325 17.2969 32.4937 17.1656L32.6344 17.4094Z" stroke="#FFFF00" stroke-width="0.6" stroke-linecap="round" stroke-linejoin="round"/>
<path fill-rule="evenodd" clip-rule="evenodd" d="M34.0125 22.9219V23.1563C33.75 23.475 32.1188 23.9438 30.075 24.2813C28.0446 24.5731 25.995 24.711 23.9438 24.6938C21.9987 24.7103 20.0554 24.5756 18.1312 24.2906C16.6955 24.1247 15.2926 23.7456 13.9688 23.1656V22.8938C14.8781 23.4938 17.3344 23.9438 18.1594 24.075C19.6406 24.3 21.5438 24.4688 23.9438 24.4688C26.4656 24.4688 28.4813 24.2906 30.0375 24.0563C31.5094 23.8406 33.6 23.2875 34.0125 22.9219ZM34.0125 22.0781V22.3125C33.75 22.6219 32.1188 23.0906 30.075 23.4281C28.0448 23.7231 25.9952 23.8642 23.9438 23.85C21.9989 23.8615 20.0559 23.7267 18.1312 23.4469C16.6955 23.281 15.2926 22.9018 13.9688 22.3219V22.0406C14.8781 22.65 17.3438 23.0906 18.1594 23.2219C20.0745 23.5024 22.0082 23.6372 23.9438 23.625C26.4656 23.625 28.4906 23.4375 30.0375 23.2031C31.5094 22.9969 33.6 22.4438 34.0125 22.0781ZM23.9813 28.5281C19.7063 28.5094 16.0406 27.3656 15.2625 27.1781L15.825 28.0594C18.4546 28.9907 21.2295 29.4447 24.0188 29.4C27.2719 29.3063 30.1125 29.0531 32.1094 28.0781L32.6906 27.1594C31.3313 27.8063 26.6906 28.5281 23.9719 28.5281" fill="#FFFF00"/>
<path fill-rule="evenodd" clip-rule="evenodd" d="M32.3344 27.8719C32.249 27.9984 32.1615 28.1234 32.0719 28.2469C31.1344 28.5844 29.6344 28.9406 29.0156 29.0344C27.3553 29.3438 25.6702 29.5007 23.9812 29.5031C20.1937 29.4469 17.0906 28.7063 15.6375 28.0688L15.5156 27.8719L15.5344 27.8344L15.7313 27.9188C18.3994 28.8017 21.1896 29.2604 24 29.2781C25.7625 29.2781 27.5156 29.0813 28.9312 28.8281C31.1062 28.3875 31.9875 28.0594 32.2594 27.9094L32.325 27.8719H32.3344ZM32.8312 27.0469C32.7695 27.1567 32.707 27.2661 32.6437 27.375C32.1375 27.5625 30.7687 27.9563 28.7719 28.2375C27.4594 28.4156 26.6437 28.5938 24.0281 28.6406C21.0381 28.6106 18.0664 28.169 15.1969 27.3281L15.0938 27.0938C18.0092 27.8995 21.0134 28.3404 24.0375 28.4063C26.4281 28.3594 27.45 28.1813 28.7531 28.0031C31.0781 27.6469 32.25 27.2531 32.5969 27.15C32.5971 27.1438 32.5971 27.1375 32.5969 27.1313L32.8406 27.0375L32.8312 27.0469Z" fill="#FFFF00"/>
<path fill-rule="evenodd" clip-rule="evenodd" d="M32.8875 22.275C32.8969 25.0875 31.4531 27.6188 30.3 28.725C28.5969 30.386 26.3225 31.332 23.9438 31.3688C21.1031 31.4156 18.4313 29.5688 17.7094 28.7531C16.0945 27.0406 15.1753 24.7879 15.1313 22.4344C15.3 19.3594 16.5094 17.2219 18.2531 15.75C19.947 14.3555 22.0779 13.6021 24.2719 13.6219C25.5526 13.684 26.8063 14.0129 27.9525 14.5876C29.0987 15.1624 30.1122 15.9702 30.9281 16.9594C32.1 18.3844 32.6156 19.9313 32.8875 22.275ZM23.9625 12.6563C26.5851 12.6562 29.1015 13.6929 30.963 15.5403C32.8245 17.3878 33.8802 19.8962 33.9 22.5188C33.9 23.8201 33.6437 25.1086 33.1457 26.3109C32.6477 27.5132 31.9178 28.6056 30.9976 29.5257C30.0774 30.4459 28.985 31.1758 27.7828 31.6738C26.5805 32.1718 25.2919 32.4281 23.9906 32.4281C22.6893 32.4281 21.4007 32.1718 20.1985 31.6738C18.9962 31.1758 17.9038 30.4459 16.9836 29.5257C16.0635 28.6056 15.3336 27.5132 14.8356 26.3109C14.3376 25.1086 14.0813 23.8201 14.0813 22.5188C14.0719 17.0813 18.5156 12.6563 23.9625 12.6563Z" fill="#FFFF00" stroke="black" stroke-width="0.6" stroke-linecap="round" stroke-linejoin="round"/>
<path fill-rule="evenodd" clip-rule="evenodd" d="M23.9906 12.6094C29.4469 12.6094 33.8906 17.0531 33.8906 22.5094C33.8906 27.9656 29.4469 32.4094 24 32.4094C18.5531 32.4094 14.1 27.9656 14.1 22.5094C14.1 17.0531 18.5438 12.6094 24 12.6094H23.9906ZM14.3063 22.5C14.3063 27.825 18.6844 32.1844 23.9906 32.1844C29.2969 32.1844 33.675 27.825 33.675 22.5C33.675 17.175 29.2969 12.8156 23.9906 12.8156C18.6844 12.8156 14.3063 17.175 14.3063 22.5Z" fill="#FFFF00"/>
<path fill-rule="evenodd" clip-rule="evenodd" d="M24 13.4344C26.4021 13.4418 28.7037 14.3993 30.4022 16.0978C32.1007 17.7964 33.0582 20.0979 33.0656 22.5C33.0582 24.903 32.101 27.2055 30.4028 28.9055C28.7045 30.6055 26.4029 31.5651 24 31.575C19.0313 31.575 14.9344 27.4875 14.9344 22.5C14.9443 20.0987 15.9026 17.7986 17.6006 16.1006C19.2986 14.4026 21.5987 13.4443 24 13.4344ZM15.15 22.5C15.15 27.375 19.1438 31.35 24 31.35C28.8563 31.35 32.85 27.3656 32.85 22.5C32.85 17.625 28.8563 13.65 24 13.65C21.6559 13.6599 19.4106 14.5955 17.753 16.253C16.0955 17.9106 15.1599 20.1559 15.15 22.5Z" fill="#FFFF00"/>
<path fill-rule="evenodd" clip-rule="evenodd" d="M24.4031 12.5625H23.55V32.4656H24.3937L24.4031 12.5625Z" fill="#FFFF00" stroke="black" stroke-width="0.6" stroke-linecap="round" stroke-linejoin="round"/>
<path fill-rule="evenodd" clip-rule="evenodd" d="M24.3094 12.45H24.525V32.5781H24.3188V12.45H24.3094ZM23.4656 12.45H23.6906V32.5781H23.475V12.45H23.4656Z" fill="#FFFF00"/>
<path fill-rule="evenodd" clip-rule="evenodd" d="M33.9 22.8937V22.1625L33.3 21.6L29.8969 20.7L25.0031 20.2031L19.0969 20.5031L14.8969 21.4969L14.0531 22.125V22.8656L16.2 21.9L21.3 21.1031H26.2031L29.8031 21.4969L32.2969 22.0969L33.9 22.8937Z" fill="#FFFF00" stroke="black" stroke-width="0.6" stroke-linecap="round" stroke-linejoin="round"/>
<path fill-rule="evenodd" clip-rule="evenodd" d="M24 20.9813C26.3344 20.9813 28.5938 21.1969 30.4031 21.5438C32.2594 21.9188 33.5625 22.3875 34.0125 22.9031V23.1656C33.4688 22.5094 31.7156 22.0406 30.3563 21.7594C28.575 21.4219 26.325 21.1969 23.9906 21.1969C21.5438 21.1969 19.2563 21.4406 17.4938 21.7781C16.0875 22.0594 14.2031 22.6219 13.9688 23.1656V22.8938C14.0906 22.5188 15.4969 21.9563 17.4656 21.5531C19.2375 21.2063 21.525 20.9813 23.9906 20.9813H24ZM24 20.1281C26.1469 20.1238 28.2899 20.3121 30.4031 20.6906C32.2594 21.0656 33.5625 21.5344 34.0125 22.0594V22.3125C33.4688 21.6656 31.7156 21.1875 30.3563 20.9156C28.575 20.5688 26.325 20.3531 23.9906 20.3531C21.8148 20.3463 19.6431 20.5408 17.5031 20.9344C16.1437 21.1875 14.1844 21.7688 13.9688 22.3125V22.05C14.1 21.675 15.525 21.0844 17.4656 20.7094C19.2469 20.3625 21.525 20.1281 24 20.1281ZM23.9438 15.7969C27.6281 15.7781 30.8438 16.3125 32.3156 17.0625L32.85 18C31.575 17.3063 28.1063 16.5938 23.9531 16.6875C20.5688 16.7156 16.95 17.0625 15.1406 18.0375L15.7781 16.9688C17.2688 16.1906 20.775 15.7969 23.9438 15.7969Z" fill="#FFFF00"/>
<path fill-rule="evenodd" clip-rule="evenodd" d="M24 16.5657C25.9237 16.5332 27.8466 16.6681 29.7469 16.9688C31.2469 17.25 32.6813 17.6625 32.8875 17.8875L33.0469 18.1688C32.55 17.85 31.3031 17.4844 29.7094 17.1844C28.1156 16.8844 26.0813 16.7813 23.9906 16.7907C21.6188 16.7813 19.7719 16.9032 18.1969 17.1844C17.1112 17.3366 16.057 17.6626 15.075 18.15L15.2344 17.8594C15.7969 17.5782 16.6688 17.2313 18.15 16.9594C19.7906 16.6594 21.6563 16.575 24 16.5657ZM24 15.7219C26.0063 15.7032 27.9938 15.8157 29.5406 16.0969C30.5428 16.2457 31.5127 16.5627 32.4094 17.0344L32.6438 17.4094C32.25 16.9688 30.7688 16.5469 29.4469 16.3219C27.9094 16.05 26.0063 15.9469 24 15.9282C22.1324 15.9115 20.2667 16.0495 18.4219 16.3407C17.4573 16.4751 16.5204 16.7631 15.6469 17.1938L15.8531 16.8844C16.3969 16.6032 17.2781 16.3407 18.3844 16.125C20.2414 15.83 22.1199 15.692 24 15.7125V15.7219ZM28.9125 26.625C27.2876 26.3437 25.6395 26.2181 23.9906 26.25C17.85 26.325 15.8719 27.5157 15.6281 27.8719L15.1594 27.1219C16.7344 25.9969 20.0719 25.3594 24.0281 25.4157C26.0813 25.4532 27.8531 25.5938 29.3344 25.8844L28.9125 26.6344" fill="#FFFF00"/>
<path fill-rule="evenodd" clip-rule="evenodd" d="M23.9625 26.1469C25.6688 26.175 27.3375 26.2406 28.9594 26.5406L28.8469 26.7469C27.3469 26.4656 25.7344 26.3719 23.9719 26.3719C21.6938 26.3531 19.4063 26.5688 17.4094 27.1406C16.7813 27.3188 15.7406 27.7219 15.6281 28.0594L15.5156 27.8719C15.5531 27.6656 16.1719 27.2531 17.3531 26.9344C19.6406 26.2781 21.7781 26.1563 23.9625 26.1469ZM24.0375 25.2844C25.8384 25.2825 27.636 25.4394 29.4094 25.7531L29.2875 25.9688C27.5558 25.6511 25.798 25.4973 24.0375 25.5094C21.7688 25.5094 19.3594 25.6781 17.1656 26.3156C16.4625 26.5219 15.2344 26.9719 15.1969 27.3188L15.0844 27.1125C15.1031 26.7938 16.1625 26.3719 17.1188 26.1C19.3219 25.4531 21.7406 25.2938 24.0375 25.2844Z" fill="#FFFF00"/>
<path fill-rule="evenodd" clip-rule="evenodd" d="M14.8688 18.3281C15.4313 17.9531 19.575 19.7906 23.925 22.4156C28.2469 25.0406 32.3906 28.0031 32.0156 28.5563L31.8938 28.7531L31.8375 28.8C31.8469 28.7906 31.9125 28.7063 31.8375 28.5094C31.65 27.9 28.7063 25.5563 23.8406 22.6125C19.0875 19.7906 15.1313 18.0844 14.7469 18.5719L14.8688 18.3281ZM32.9063 27.225C33.2625 26.5125 29.4188 23.6156 24.6469 20.7938C19.7719 18.0281 16.2469 16.3969 15.6 16.8844L15.4688 17.1563C15.4688 17.1656 15.4688 17.1375 15.5063 17.1094C15.6188 17.0156 15.8156 17.0156 15.9 17.0156C17.0063 17.0344 20.1656 18.4875 24.6 21.0281C26.55 22.1531 32.8125 26.1844 32.7844 27.3094C32.7844 27.4031 32.7938 27.4219 32.7563 27.4781L32.9156 27.2344L32.9063 27.225Z" fill="#FFFF00"/>
<path d="M18.0601 23.6032C18.0615 24.3794 18.217 25.1477 18.5174 25.8635C18.8178 26.5793 19.2571 27.2284 19.8101 27.7732C20.3563 28.3278 21.0068 28.7688 21.7242 29.0709C22.4416 29.373 23.2117 29.5301 23.9901 29.5332C25.5654 29.5331 27.0762 28.9072 28.1901 27.7932C28.7411 27.2454 29.1784 26.5941 29.477 25.8767C29.7756 25.1594 29.9296 24.3902 29.9301 23.6132V15.6932L18.0601 15.6732V23.6032Z" fill="white" stroke="black" stroke-width="0.746669"/>
<path d="M18.2801 23.6132C18.2822 24.3578 18.4317 25.0947 18.7201 25.7812C19.0084 26.4677 19.4298 27.0904 19.9601 27.6132C21.0247 28.6834 22.4705 29.2876 23.9801 29.2932C25.487 29.294 26.9328 28.697 28.0001 27.6332C28.5285 27.1096 28.9481 26.4865 29.2347 25.8C29.5213 25.1135 29.6693 24.3771 29.6701 23.6332V15.9332H18.3001V23.6132M27.4001 18.2432V23.1332L27.3901 23.6432C27.3935 24.0899 27.3066 24.5328 27.1348 24.9452C26.963 25.3575 26.7097 25.731 26.3901 26.0432C25.7542 26.6813 24.891 27.041 23.9901 27.0432C23.0501 27.0432 22.2201 26.6432 21.6001 26.0232C20.9619 25.3873 20.6023 24.5241 20.6001 23.6232V18.2232L27.4001 18.2432Z" fill="#FF0000"/>
<path d="M18.2801 23.6132C18.2822 24.3578 18.4317 25.0947 18.7201 25.7812C19.0084 26.4677 19.4298 27.0904 19.9601 27.6132C21.0247 28.6834 22.4705 29.2876 23.9801 29.2932C25.487 29.294 26.9328 28.697 28.0001 27.6332C28.5285 27.1096 28.9481 26.4865 29.2347 25.8C29.5213 25.1135 29.6693 24.3771 29.6701 23.6332V15.9332H18.3001V23.6132M27.4001 18.2432V23.1332L27.3901 23.6432C27.3935 24.0899 27.3066 24.5328 27.1348 24.9452C26.963 25.3575 26.7097 25.731 26.3901 26.0432C25.7542 26.6813 24.891 27.041 23.9901 27.0432C23.0501 27.0432 22.2201 26.6432 21.6001 26.0232C20.9619 25.3873 20.6023 24.5241 20.6001 23.6232V18.2232L27.4001 18.2432Z" stroke="#FFFF00" stroke-width="0.533335"/>
<path d="M19.0201 17.9432C19.0301 17.3932 19.4201 17.2632 19.4201 17.2632C19.4301 17.2632 19.8501 17.4032 19.8501 17.9532H19.0201" fill="#FFFF00"/>
<path d="M18.6801 17.2732L18.6101 17.9032H19.0301C19.0301 17.3832 19.4301 17.3032 19.4301 17.3032C19.4401 17.3032 19.8301 17.4132 19.8401 17.9032H20.2601L20.1801 17.2632H18.6801V17.2732ZM18.5801 17.9132H20.2801C20.3101 17.9132 20.3401 17.9432 20.3401 17.9832C20.3401 18.0332 20.3101 18.0632 20.2801 18.0632H18.5801C18.5501 18.0632 18.5201 18.0332 18.5201 17.9832C18.5201 17.9432 18.55 17.9132 18.59 17.9132H18.5801Z" fill="#FFFF00"/>
<path d="M19.2001 17.9032C19.2001 17.5732 19.4301 17.4832 19.4301 17.4832C19.4301 17.4832 19.6601 17.5832 19.6601 17.9032H19.2001ZM18.6201 17.0032H20.2501C20.2801 17.0032 20.3101 17.0432 20.3101 17.0832C20.3101 17.1132 20.2801 17.1432 20.2501 17.1432H18.6201C18.5901 17.1432 18.5601 17.1132 18.5601 17.0732C18.5601 17.0432 18.5901 17.0132 18.6201 17.0132V17.0032ZM18.6601 17.1532H20.2001C20.2301 17.1532 20.2601 17.1832 20.2601 17.2232C20.2601 17.2632 20.2301 17.2932 20.2001 17.2932H18.6501C18.6101 17.2932 18.5901 17.2632 18.5901 17.2232C18.5901 17.1832 18.6101 17.1532 18.6501 17.1532H18.6601ZM19.1601 16.0932H19.2801V16.1732H19.3701V16.0932H19.5001V16.1832H19.5901V16.0832H19.7101V16.2832C19.7101 16.3232 19.6901 16.3432 19.6601 16.3432H19.2201C19.1901 16.3432 19.1601 16.3232 19.1601 16.2932V16.0932ZM19.6201 16.3632L19.6501 17.0032H19.2201L19.2501 16.3532H19.6201" fill="#FFFF00"/>
<path d="M19.1 16.6632V17.0032H18.7V16.6632H19.1Z" fill="#FFFF00"/>
<path d="M20.16 16.6632V17.0032H19.76V16.6632H20.16Z" fill="#FFFF00"/>
<path d="M18.63 16.4032H18.75V16.5032H18.84V16.4032H18.96V16.5032H19.05V16.4032H19.17V16.6032C19.17 16.6432 19.15 16.6632 19.12 16.6632H18.69C18.6741 16.6632 18.6589 16.6568 18.6476 16.6456C18.6364 16.6343 18.63 16.6191 18.63 16.6032V16.4032Z" fill="#FFFF00"/>
<path d="M19.6901 16.4032H19.8101V16.5032H19.9001V16.4032H20.0201V16.5032H20.1101V16.4032H20.2301V16.6032C20.2301 16.6432 20.2101 16.6632 20.1801 16.6632H19.7501C19.7341 16.6632 19.7189 16.6568 19.7076 16.6456C19.6964 16.6343 19.6901 16.6191 19.6901 16.6032V16.4032Z" fill="#FFFF00"/>
<path d="M19.39 16.5632C19.39 16.5032 19.48 16.5032 19.48 16.5632V16.7232H19.39V16.5632Z" fill="black"/>
<path d="M18.86 16.7832C18.86 16.7232 18.94 16.7232 18.94 16.7832V16.9032H18.86V16.7832Z" fill="black"/>
<path d="M19.92 16.7832C19.92 16.7232 20 16.7232 20 16.7832V16.9032H19.92V16.7832Z" fill="black"/>
<path d="M19.0201 22.5732C19.0301 22.0232 19.4201 21.8932 19.4201 21.8932C19.4301 21.8932 19.8501 22.0332 19.8501 22.5832H19.0201" fill="#FFFF00"/>
<path d="M18.6801 21.9032L18.6101 22.5332H19.0301C19.0301 22.0132 19.4301 21.9332 19.4301 21.9332C19.4401 21.9332 19.8301 22.0432 19.8401 22.5332H20.2601L20.1801 21.8932H18.6801V21.9032ZM18.5801 22.5432H20.2801C20.3101 22.5432 20.3401 22.5732 20.3401 22.6132C20.3401 22.6632 20.3101 22.6932 20.2801 22.6932H18.5801C18.5501 22.6932 18.5201 22.6632 18.5201 22.6132C18.5201 22.5732 18.55 22.5432 18.59 22.5432H18.5801Z" fill="#FFFF00"/>
<path d="M19.2001 22.5332C19.2001 22.2032 19.4301 22.1132 19.4301 22.1132C19.4301 22.1132 19.6601 22.2132 19.6601 22.5332H19.2001ZM18.6201 21.6332H20.2501C20.2801 21.6332 20.3101 21.6732 20.3101 21.7132C20.3101 21.7432 20.2801 21.7732 20.2501 21.7732H18.6201C18.5901 21.7732 18.5601 21.7432 18.5601 21.7032C18.5601 21.6732 18.5901 21.6432 18.6201 21.6432V21.6332ZM18.6601 21.7832H20.2001C20.2301 21.7832 20.2601 21.8132 20.2601 21.8532C20.2601 21.8932 20.2301 21.9232 20.2001 21.9232H18.6501C18.6101 21.9232 18.5901 21.8932 18.5901 21.8532C18.5901 21.8132 18.6101 21.7832 18.6501 21.7832H18.6601ZM19.1601 20.7232H19.2801V20.8032H19.3701V20.7232H19.5001V20.8132H19.5901V20.7132H19.7101V20.9132C19.7101 20.9532 19.6901 20.9732 19.6601 20.9732H19.2201C19.1901 20.9732 19.1601 20.9532 19.1601 20.9232V20.7232ZM19.6201 20.9932L19.6501 21.6332H19.2201L19.2501 20.9832H19.6201" fill="#FFFF00"/>
<path d="M19.1 21.2932V21.6332H18.7V21.2932H19.1Z" fill="#FFFF00"/>
<path d="M20.16 21.2932V21.6332H19.76V21.2932H20.16Z" fill="#FFFF00"/>
<path d="M18.6301 21.0332H18.7501V21.1332H18.8401V21.0332H18.9601V21.1332H19.0501V21.0332H19.1701V21.2332C19.1701 21.2732 19.1501 21.2932 19.1201 21.2932H18.6901C18.6742 21.2932 18.6589 21.2869 18.6476 21.2756C18.6364 21.2643 18.6301 21.2491 18.6301 21.2332V21.0332Z" fill="#FFFF00"/>
<path d="M19.6901 21.0332H19.8101V21.1332H19.9001V21.0332H20.0201V21.1332H20.1101V21.0332H20.2301V21.2332C20.2301 21.2732 20.2101 21.2932 20.1801 21.2932H19.7501C19.7341 21.2932 19.7189 21.2869 19.7076 21.2756C19.6964 21.2643 19.6901 21.2491 19.6901 21.2332V21.0332Z" fill="#FFFF00"/>
<path d="M19.39 21.1932C19.39 21.1332 19.48 21.1332 19.48 21.1932V21.3532H19.39V21.1932Z" fill="black"/>
<path d="M18.86 21.4132C18.86 21.3532 18.94 21.3532 18.94 21.4132V21.5332H18.86V21.4132Z" fill="black"/>
<path d="M19.92 21.4132C19.92 21.3532 20 21.3532 20 21.4132V21.5332H19.92V21.4132Z" fill="black"/>
<path d="M20.8247 27.3987C20.4415 27.004 20.6241 26.6357 20.6241 26.6357C20.6311 26.6286 21.0264 26.4292 21.4167 26.8168L20.8318 27.4057" fill="#FFFF00"/>
<path d="M20.1098 27.1678L20.5075 27.6614L20.8034 27.3634C20.4344 26.997 20.6595 26.6568 20.6595 26.6568C20.6666 26.6497 21.0194 26.4505 21.3742 26.7887L21.6701 26.4906L21.1596 26.0964L20.1027 27.1608L20.1098 27.1678ZM20.4934 27.6898L21.6913 26.4835C21.7125 26.4622 21.7549 26.4621 21.7833 26.4902C21.8187 26.5255 21.8189 26.5679 21.7977 26.5892L20.5999 27.7955C20.5787 27.8167 20.5363 27.8169 20.5008 27.7817C20.4724 27.7535 20.4723 27.711 20.5005 27.6827L20.4934 27.6898Z" fill="#FFFF00"/>
<path d="M20.9232 27.2428C20.689 27.0102 20.7873 26.7836 20.7873 26.7836C20.7873 26.7836 21.0203 26.6909 21.2473 26.9164L20.9232 27.2428ZM19.8759 27.0202L21.0245 25.8635C21.0456 25.8423 21.0951 25.8492 21.1235 25.8773C21.1448 25.8985 21.1449 25.9409 21.1238 25.9622L19.9752 27.1188C19.9541 27.1401 19.9117 27.1402 19.8833 27.112C19.862 27.0909 19.8619 27.0485 19.883 27.0272L19.8759 27.0202ZM20.0105 27.0975L21.0957 26.0047C21.1168 25.9834 21.1592 25.9833 21.1876 26.0115C21.216 26.0397 21.2161 26.0821 21.195 26.1034L20.1028 27.2032C20.0746 27.2316 20.0393 27.2246 20.0109 27.1965C19.9825 27.1683 19.9753 27.1329 20.0035 27.1046L20.0105 27.0975ZM19.6107 25.9958L19.6952 25.9106L19.752 25.967L19.8154 25.9031L19.7587 25.8468L19.8503 25.7545L19.9141 25.8179L19.9775 25.7541L19.9066 25.6836L19.9911 25.5985L20.1331 25.7394C20.1614 25.7676 20.1615 25.7958 20.1404 25.8171L19.8304 26.1293C19.8092 26.1506 19.7739 26.1578 19.7526 26.1367L19.6107 25.9958ZM20.1264 25.8596L20.6017 26.2893L20.2987 26.5944L19.8586 26.1151L20.1193 25.8526" fill="#FFFF00"/>
<path d="M19.9729 26.44L20.2141 26.6796L19.9323 26.9634L19.691 26.7238L19.9729 26.44Z" fill="#FFFF00"/>
<path d="M20.7198 25.6878L20.961 25.9274L20.6792 26.2112L20.4379 25.9716L20.7198 25.6878Z" fill="#FFFF00"/>
<path d="M19.4572 26.5903L19.5417 26.5051L19.6127 26.5756L19.6761 26.5117L19.6052 26.4413L19.6897 26.3561L19.7607 26.4266L19.8241 26.3627L19.7531 26.2923L19.8377 26.2071L19.9796 26.348C20.008 26.3762 20.0081 26.4045 19.9869 26.4258L19.684 26.7309C19.6727 26.7422 19.6575 26.7486 19.6416 26.7486C19.6257 26.7487 19.6104 26.7424 19.5991 26.7312L19.4572 26.5903Z" fill="#FFFF00"/>
<path d="M20.2041 25.8381L20.2887 25.753L20.3596 25.8234L20.423 25.7596L20.3521 25.6891L20.4366 25.604L20.5076 25.6744L20.571 25.6106L20.5 25.5401L20.5846 25.455L20.7265 25.5959C20.7549 25.6241 20.755 25.6524 20.7339 25.6737L20.4309 25.9788C20.4197 25.9901 20.4044 25.9964 20.3885 25.9965C20.3726 25.9965 20.3573 25.9903 20.346 25.9791L20.2041 25.8381Z" fill="#FFFF00"/>
<path d="M20.1062 26.1637C20.0637 26.1214 20.1271 26.0576 20.1697 26.0999L20.2832 26.2126L20.2198 26.2765L20.1062 26.1637Z" fill="black"/>
<path d="M19.8889 26.6948C19.8463 26.6525 19.9027 26.5958 19.9453 26.6381L20.0304 26.7226L19.974 26.7794L19.8889 26.6948Z" fill="black"/>
<path d="M20.6358 25.9427C20.5932 25.9004 20.6496 25.8436 20.6922 25.8859L20.7773 25.9705L20.721 26.0272L20.6358 25.9427Z" fill="black"/>
<path d="M23.5901 17.9432C23.6001 17.3932 23.9901 17.2632 23.9901 17.2632C24.0001 17.2632 24.4201 17.4032 24.4201 17.9532H23.5901" fill="#FFFF00"/>
<path d="M23.2501 17.2732L23.1801 17.9032H23.6001C23.6001 17.3832 24.0001 17.3032 24.0001 17.3032C24.0101 17.3032 24.4001 17.4132 24.4101 17.9032H24.8301L24.7501 17.2632H23.2501V17.2732ZM23.1501 17.9132H24.8501C24.8801 17.9132 24.9101 17.9432 24.9101 17.9832C24.9101 18.0332 24.8801 18.0632 24.8501 18.0632H23.1501C23.1201 18.0632 23.0901 18.0332 23.0901 17.9832C23.0901 17.9432 23.1201 17.9132 23.1601 17.9132H23.1501Z" fill="#FFFF00"/>
<path d="M23.7701 17.9032C23.7701 17.5732 24.0001 17.4832 24.0001 17.4832C24.0001 17.4832 24.2301 17.5832 24.2301 17.9032H23.7701ZM23.1901 17.0032H24.8201C24.8501 17.0032 24.8801 17.0432 24.8801 17.0832C24.8801 17.1132 24.8501 17.1432 24.8201 17.1432H23.1901C23.1601 17.1432 23.1301 17.1132 23.1301 17.0732C23.1301 17.0432 23.1601 17.0132 23.1901 17.0132V17.0032ZM23.2301 17.1532H24.7701C24.8001 17.1532 24.8301 17.1832 24.8301 17.2232C24.8301 17.2632 24.8001 17.2932 24.7701 17.2932H23.2201C23.1801 17.2932 23.1601 17.2632 23.1601 17.2232C23.1601 17.1832 23.1801 17.1532 23.2201 17.1532H23.2301ZM23.7301 16.0932H23.8501V16.1732H23.9401V16.0932H24.0701V16.1832H24.1601V16.0832H24.2801V16.2832C24.2801 16.3232 24.2601 16.3432 24.2301 16.3432H23.7901C23.7601 16.3432 23.7301 16.3232 23.7301 16.2932V16.0932ZM24.1901 16.3632L24.2201 17.0032H23.7901L23.8201 16.3532H24.1901" fill="#FFFF00"/>
<path d="M23.6701 16.6632V17.0032H23.2701V16.6632H23.6701Z" fill="#FFFF00"/>
<path d="M24.7301 16.6632V17.0032H24.3301V16.6632H24.7301Z" fill="#FFFF00"/>
<path d="M23.2001 16.4032H23.3201V16.5032H23.4101V16.4032H23.5301V16.5032H23.6201V16.4032H23.7401V16.6032C23.7401 16.6432 23.7201 16.6632 23.6901 16.6632H23.2601C23.2442 16.6632 23.2289 16.6568 23.2176 16.6456C23.2064 16.6343 23.2001 16.6191 23.2001 16.6032V16.4032Z" fill="#FFFF00"/>
<path d="M24.2601 16.4032H24.3801V16.5032H24.4701V16.4032H24.5901V16.5032H24.6801V16.4032H24.8001V16.6032C24.8001 16.6432 24.7801 16.6632 24.7501 16.6632H24.3201C24.3042 16.6632 24.2889 16.6568 24.2776 16.6456C24.2664 16.6343 24.2601 16.6191 24.2601 16.6032V16.4032Z" fill="#FFFF00"/>
<path d="M23.9601 16.5632C23.9601 16.5032 24.0501 16.5032 24.0501 16.5632V16.7232H23.9601V16.5632Z" fill="black"/>
<path d="M23.4301 16.7832C23.4301 16.7232 23.5101 16.7232 23.5101 16.7832V16.9032H23.4301V16.7832Z" fill="black"/>
<path d="M24.4901 16.7832C24.4901 16.7232 24.5701 16.7232 24.5701 16.7832V16.9032H24.4901V16.7832Z" fill="black"/>
<path d="M28.9601 17.9432C28.9501 17.3932 28.5601 17.2632 28.5601 17.2632C28.5501 17.2632 28.1301 17.4032 28.1301 17.9532H28.9601" fill="#FFFF00"/>
<path d="M29.3001 17.2732L29.3701 17.9032H28.9501C28.9501 17.3832 28.5501 17.3032 28.5501 17.3032C28.5401 17.3032 28.1501 17.4132 28.1401 17.9032H27.7201L27.8001 17.2632H29.3001V17.2732ZM29.4001 17.9132H27.7001C27.6701 17.9132 27.6401 17.9432 27.6401 17.9832C27.6401 18.0332 27.6701 18.0632 27.7001 18.0632H29.4001C29.4301 18.0632 29.4601 18.0332 29.4601 17.9832C29.4601 17.9432 29.4301 17.9132 29.3901 17.9132H29.4001Z" fill="#FFFF00"/>
<path d="M28.7801 17.9032C28.7801 17.5732 28.5501 17.4832 28.5501 17.4832C28.5501 17.4832 28.3201 17.5832 28.3201 17.9032H28.7801ZM29.3601 17.0032H27.7301C27.7001 17.0032 27.6701 17.0432 27.6701 17.0832C27.6701 17.1132 27.7001 17.1432 27.7301 17.1432H29.3601C29.3901 17.1432 29.4201 17.1132 29.4201 17.0732C29.4201 17.0432 29.3901 17.0132 29.3601 17.0132V17.0032ZM29.3201 17.1532H27.7801C27.7501 17.1532 27.7201 17.1832 27.7201 17.2232C27.7201 17.2632 27.7501 17.2932 27.7801 17.2932H29.3301C29.3701 17.2932 29.3901 17.2632 29.3901 17.2232C29.3901 17.1832 29.3701 17.1532 29.3301 17.1532H29.3201ZM28.8201 16.0932H28.7001V16.1732H28.6101V16.0932H28.4801V16.1832H28.3901V16.0832H28.2701V16.2832C28.2701 16.3232 28.2901 16.3432 28.3201 16.3432H28.7601C28.7901 16.3432 28.8201 16.3232 28.8201 16.2932V16.0932ZM28.3601 16.3632L28.3301 17.0032H28.7601L28.7301 16.3532H28.3601" fill="#FFFF00"/>
<path d="M28.8801 16.6632V17.0032H29.2801V16.6632H28.8801Z" fill="#FFFF00"/>
<path d="M27.8201 16.6632V17.0032H28.2201V16.6632H27.8201Z" fill="#FFFF00"/>
<path d="M29.3501 16.4032H29.2301V16.5032H29.1401V16.4032H29.0201V16.5032H28.9301V16.4032H28.8101V16.6032C28.8101 16.6432 28.8301 16.6632 28.8601 16.6632H29.2901C29.306 16.6632 29.3213 16.6568 29.3325 16.6456C29.3438 16.6343 29.3501 16.6191 29.3501 16.6032V16.4032Z" fill="#FFFF00"/>
<path d="M28.2901 16.4032H28.1701V16.5032H28.0801V16.4032H27.9601V16.5032H27.8701V16.4032H27.7501V16.6032C27.7501 16.6432 27.7701 16.6632 27.8001 16.6632H28.2301C28.246 16.6632 28.2613 16.6568 28.2725 16.6456C28.2838 16.6343 28.2901 16.6191 28.2901 16.6032V16.4032Z" fill="#FFFF00"/>
<path d="M28.5901 16.5632C28.5901 16.5032 28.5001 16.5032 28.5001 16.5632V16.7232H28.5901V16.5632Z" fill="black"/>
<path d="M29.1201 16.7832C29.1201 16.7232 29.0401 16.7232 29.0401 16.7832V16.9032H29.1201V16.7832Z" fill="black"/>
<path d="M28.0601 16.7832C28.0601 16.7232 27.9801 16.7232 27.9801 16.7832V16.9032H28.0601V16.7832Z" fill="black"/>
<path d="M28.9601 22.5732C28.9501 22.0232 28.5601 21.8932 28.5601 21.8932C28.5501 21.8932 28.1301 22.0332 28.1301 22.5832H28.9601" fill="#FFFF00"/>
<path d="M29.3001 21.9032L29.3701 22.5332H28.9501C28.9501 22.0132 28.5501 21.9332 28.5501 21.9332C28.5401 21.9332 28.1501 22.0432 28.1401 22.5332H27.7201L27.8001 21.8932H29.3001V21.9032ZM29.4001 22.5432H27.7001C27.6701 22.5432 27.6401 22.5732 27.6401 22.6132C27.6401 22.6632 27.6701 22.6932 27.7001 22.6932H29.4001C29.4301 22.6932 29.4601 22.6632 29.4601 22.6132C29.4601 22.5732 29.4301 22.5432 29.3901 22.5432H29.4001Z" fill="#FFFF00"/>
<path d="M28.7801 22.5332C28.7801 22.2032 28.5501 22.1132 28.5501 22.1132C28.5501 22.1132 28.3201 22.2132 28.3201 22.5332H28.7801ZM29.3601 21.6332H27.7301C27.7001 21.6332 27.6701 21.6732 27.6701 21.7132C27.6701 21.7432 27.7001 21.7732 27.7301 21.7732H29.3601C29.3901 21.7732 29.4201 21.7432 29.4201 21.7032C29.4201 21.6732 29.3901 21.6432 29.3601 21.6432V21.6332ZM29.3201 21.7832H27.7801C27.7501 21.7832 27.7201 21.8132 27.7201 21.8532C27.7201 21.8932 27.7501 21.9232 27.7801 21.9232H29.3301C29.3701 21.9232 29.3901 21.8932 29.3901 21.8532C29.3901 21.8132 29.3701 21.7832 29.3301 21.7832H29.3201ZM28.8201 20.7232H28.7001V20.8032H28.6101V20.7232H28.4801V20.8132H28.3901V20.7132H28.2701V20.9132C28.2701 20.9532 28.2901 20.9732 28.3201 20.9732H28.7601C28.7901 20.9732 28.8201 20.9532 28.8201 20.9232V20.7232ZM28.3601 20.9932L28.3301 21.6332H28.7601L28.7301 20.9832H28.3601" fill="#FFFF00"/>
<path d="M28.8801 21.2932V21.6332H29.2801V21.2932H28.8801Z" fill="#FFFF00"/>
<path d="M27.8201 21.2932V21.6332H28.2201V21.2932H27.8201Z" fill="#FFFF00"/>
<path d="M29.3501 21.0332H29.2301V21.1332H29.1401V21.0332H29.0201V21.1332H28.9301V21.0332H28.8101V21.2332C28.8101 21.2732 28.8301 21.2932 28.8601 21.2932H29.2901C29.306 21.2932 29.3213 21.2869 29.3325 21.2756C29.3438 21.2643 29.3501 21.2491 29.3501 21.2332V21.0332Z" fill="#FFFF00"/>
<path d="M28.2901 21.0332H28.1701V21.1332H28.0801V21.0332H27.9601V21.1332H27.8701V21.0332H27.7501V21.2332C27.7501 21.2732 27.7701 21.2932 27.8001 21.2932H28.2301C28.246 21.2932 28.2612 21.2869 28.2725 21.2756C28.2837 21.2643 28.2901 21.2491 28.2901 21.2332V21.0332Z" fill="#FFFF00"/>
<path d="M28.5901 21.1932C28.5901 21.1332 28.5001 21.1332 28.5001 21.1932V21.3532H28.5901V21.1932Z" fill="black"/>
<path d="M29.1201 21.4132C29.1201 21.3532 29.0401 21.3532 29.0401 21.4132V21.5332H29.1201V21.4132Z" fill="#FFFF00"/>
<path d="M28.0601 21.4132C28.0601 21.3532 27.9801 21.3532 27.9801 21.4132V21.5332H28.0601V21.4132Z" fill="black"/>
<path d="M27.1554 27.3987C27.5386 27.004 27.3561 26.6357 27.3561 26.6357C27.349 26.6286 26.9537 26.4292 26.5635 26.8168L27.1483 27.4057" fill="#FFFF00"/>
<path d="M27.8704 27.1678L27.4727 27.6614L27.1767 27.3634C27.5457 26.997 27.3206 26.6568 27.3206 26.6568C27.3136 26.6497 26.9607 26.4505 26.606 26.7887L26.31 26.4906L26.8205 26.0964L27.8775 27.1608L27.8704 27.1678ZM27.4867 27.6898L26.2888 26.4835C26.2677 26.4622 26.2253 26.4621 26.1969 26.4902C26.1614 26.5255 26.1612 26.5679 26.1824 26.5892L27.3803 27.7955C27.4014 27.8167 27.4438 27.8169 27.4793 27.7817C27.5077 27.7535 27.5078 27.711 27.4797 27.6827L27.4867 27.6898Z" fill="#FFFF00"/>
<path d="M27.0569 27.2428C27.2911 27.0102 27.1929 26.7836 27.1929 26.7836C27.1929 26.7836 26.9599 26.6909 26.7328 26.9164L27.0569 27.2428ZM28.1042 27.0202L26.9557 25.8635C26.9345 25.8423 26.885 25.8492 26.8566 25.8773C26.8353 25.8985 26.8352 25.9409 26.8563 25.9622L28.0049 27.1188C28.026 27.1401 28.0685 27.1402 28.0968 27.112C28.1181 27.0909 28.1183 27.0485 28.0971 27.0272L28.1042 27.0202ZM27.9696 27.0975L26.8845 26.0047C26.8633 25.9834 26.8209 25.9833 26.7925 26.0115C26.7641 26.0397 26.764 26.0821 26.7851 26.1034L27.8773 27.2032C27.9055 27.2316 27.9409 27.2246 27.9693 27.1965C27.9976 27.1683 28.0048 27.1329 27.9767 27.1046L27.9696 27.0975ZM28.3694 25.9958L28.2849 25.9106L28.2281 25.967L28.1647 25.9031L28.2215 25.8468L28.1299 25.7545L28.066 25.8179L28.0026 25.7541L28.0735 25.6836L27.989 25.5985L27.8471 25.7394C27.8187 25.7676 27.8186 25.7958 27.8397 25.8171L28.1498 26.1293C28.1709 26.1506 28.2062 26.1578 28.2275 26.1367L28.3694 25.9958ZM27.8537 25.8596L27.3785 26.2893L27.6814 26.5944L28.1215 26.1151L27.8608 25.8526" fill="#FFFF00"/>
<path d="M28.0073 26.44L27.766 26.6796L28.0479 26.9634L28.2891 26.7238L28.0073 26.44Z" fill="#FFFF00"/>
<path d="M27.2604 25.6878L27.0191 25.9274L27.301 26.2112L27.5422 25.9716L27.2604 25.6878Z" fill="#FFFF00"/>
<path d="M28.5229 26.5903L28.4384 26.5051L28.3674 26.5756L28.304 26.5117L28.375 26.4413L28.2904 26.3561L28.2195 26.4266L28.156 26.3627L28.227 26.2923L28.1424 26.2071L28.0005 26.348C27.9721 26.3762 27.972 26.4045 27.9932 26.4258L28.2962 26.7309C28.3074 26.7422 28.3226 26.7486 28.3385 26.7486C28.3545 26.7487 28.3697 26.7424 28.381 26.7312L28.5229 26.5903Z" fill="#FFFF00"/>
<path d="M27.776 25.8381L27.6915 25.753L27.6205 25.8234L27.5571 25.7596L27.6281 25.6891L27.5435 25.604L27.4725 25.6744L27.4091 25.6106L27.4801 25.5401L27.3955 25.455L27.2536 25.5959C27.2252 25.6241 27.2251 25.6524 27.2463 25.6737L27.5493 25.9788C27.5605 25.9901 27.5757 25.9964 27.5916 25.9965C27.6075 25.9965 27.6228 25.9903 27.6341 25.9791L27.776 25.8381Z" fill="#FFFF00"/>
<path d="M27.8739 26.1637C27.9165 26.1214 27.853 26.0576 27.8105 26.0999L27.6969 26.2126L27.7604 26.2765L27.8739 26.1637Z" fill="black"/>
<path d="M28.0912 26.6948C28.1338 26.6525 28.0774 26.5958 28.0349 26.6381L27.9497 26.7226L28.0061 26.7794L28.0912 26.6948Z" fill="black"/>
<path d="M27.3443 25.9427C27.3869 25.9004 27.3305 25.8436 27.288 25.8859L27.2028 25.9705L27.2592 26.0272L27.3443 25.9427Z" fill="black"/>
<path d="M23.2601 22.7432C23.2583 22.9542 23.3369 23.1581 23.4801 23.3132C23.5469 23.3879 23.6285 23.4478 23.7198 23.4891C23.811 23.5304 23.9099 23.5523 24.0101 23.5532C24.2201 23.5532 24.4101 23.4532 24.5401 23.3132C24.6832 23.1581 24.7619 22.9542 24.7601 22.7432V21.6632H23.2601V22.7432Z" fill="#003399"/>
<path d="M23.6101 22.2232C23.6929 22.2232 23.7601 22.156 23.7601 22.0732C23.7601 21.9903 23.6929 21.9232 23.6101 21.9232C23.5272 21.9232 23.4601 21.9903 23.4601 22.0732C23.4601 22.156 23.5272 22.2232 23.6101 22.2232Z" fill="white"/>
<path d="M24.4401 22.2232C24.5229 22.2232 24.5901 22.156 24.5901 22.0732C24.5901 21.9903 24.5229 21.9232 24.4401 21.9232C24.3572 21.9232 24.2901 21.9903 24.2901 22.0732C24.2901 22.156 24.3572 22.2232 24.4401 22.2232Z" fill="white"/>
<path d="M24.0201 22.6232C24.1029 22.6232 24.1701 22.556 24.1701 22.4732C24.1701 22.3903 24.1029 22.3232 24.0201 22.3232C23.9372 22.3232 23.8701 22.3903 23.8701 22.4732C23.8701 22.556 23.9372 22.6232 24.0201 22.6232Z" fill="white"/>
<path d="M23.6101 23.0432C23.6929 23.0432 23.7601 22.976 23.7601 22.8932C23.7601 22.8103 23.6929 22.7432 23.6101 22.7432C23.5272 22.7432 23.4601 22.8103 23.4601 22.8932C23.4601 22.976 23.5272 23.0432 23.6101 23.0432Z" fill="white"/>
<path d="M24.4401 23.0432C24.5229 23.0432 24.5901 22.976 24.5901 22.8932C24.5901 22.8103 24.5229 22.7432 24.4401 22.7432C24.3572 22.7432 24.2901 22.8103 24.2901 22.8932C24.2901 22.976 24.3572 23.0432 24.4401 23.0432Z" fill="white"/>
<path d="M23.2601 20.1432C23.2583 20.3542 23.3369 20.5581 23.4801 20.7132C23.5469 20.7879 23.6285 20.8478 23.7198 20.8891C23.811 20.9304 23.9099 20.9522 24.0101 20.9532C24.2201 20.9532 24.4101 20.8532 24.5401 20.7132C24.6832 20.5581 24.7619 20.3542 24.7601 20.1432V19.0632H23.2601V20.1432Z" fill="#003399"/>
<path d="M23.6101 19.6232C23.6929 19.6232 23.7601 19.556 23.7601 19.4732C23.7601 19.3903 23.6929 19.3232 23.6101 19.3232C23.5272 19.3232 23.4601 19.3903 23.4601 19.4732C23.4601 19.556 23.5272 19.6232 23.6101 19.6232Z" fill="white"/>
<path d="M24.4401 19.6232C24.5229 19.6232 24.5901 19.556 24.5901 19.4732C24.5901 19.3903 24.5229 19.3232 24.4401 19.3232C24.3572 19.3232 24.2901 19.3903 24.2901 19.4732C24.2901 19.556 24.3572 19.6232 24.4401 19.6232Z" fill="white"/>
<path d="M24.0201 20.0232C24.1029 20.0232 24.1701 19.956 24.1701 19.8732C24.1701 19.7903 24.1029 19.7232 24.0201 19.7232C23.9372 19.7232 23.8701 19.7903 23.8701 19.8732C23.8701 19.956 23.9372 20.0232 24.0201 20.0232Z" fill="white"/>
<path d="M23.6101 20.4432C23.6929 20.4432 23.7601 20.376 23.7601 20.2932C23.7601 20.2103 23.6929 20.1432 23.6101 20.1432C23.5272 20.1432 23.4601 20.2103 23.4601 20.2932C23.4601 20.376 23.5272 20.4432 23.6101 20.4432Z" fill="white"/>
<path d="M24.4401 20.4432C24.5229 20.4432 24.5901 20.376 24.5901 20.2932C24.5901 20.2103 24.5229 20.1432 24.4401 20.1432C24.3572 20.1432 24.2901 20.2103 24.2901 20.2932C24.2901 20.376 24.3572 20.4432 24.4401 20.4432Z" fill="white"/>
<path d="M21.1801 22.7432C21.1782 22.9542 21.2569 23.1581 21.4001 23.3132C21.4668 23.3879 21.5485 23.4478 21.6397 23.4891C21.731 23.5304 21.8299 23.5523 21.9301 23.5532C22.1401 23.5532 22.3301 23.4532 22.4601 23.3132C22.6032 23.1581 22.6819 22.9542 22.6801 22.7432V21.6632H21.1801V22.7432Z" fill="#003399"/>
<path d="M21.5301 22.2232C21.6129 22.2232 21.6801 22.156 21.6801 22.0732C21.6801 21.9903 21.6129 21.9232 21.5301 21.9232C21.4472 21.9232 21.3801 21.9903 21.3801 22.0732C21.3801 22.156 21.4472 22.2232 21.5301 22.2232Z" fill="white"/>
<path d="M22.3601 22.2232C22.4429 22.2232 22.5101 22.156 22.5101 22.0732C22.5101 21.9903 22.4429 21.9232 22.3601 21.9232C22.2772 21.9232 22.2101 21.9903 22.2101 22.0732C22.2101 22.156 22.2772 22.2232 22.3601 22.2232Z" fill="white"/>
<path d="M21.9401 22.6232C22.0229 22.6232 22.0901 22.556 22.0901 22.4732C22.0901 22.3903 22.0229 22.3232 21.9401 22.3232C21.8572 22.3232 21.7901 22.3903 21.7901 22.4732C21.7901 22.556 21.8572 22.6232 21.9401 22.6232Z" fill="white"/>
<path d="M21.5301 23.0432C21.6129 23.0432 21.6801 22.976 21.6801 22.8932C21.6801 22.8103 21.6129 22.7432 21.5301 22.7432C21.4472 22.7432 21.3801 22.8103 21.3801 22.8932C21.3801 22.976 21.4472 23.0432 21.5301 23.0432Z" fill="white"/>
<path d="M22.3601 23.0432C22.4429 23.0432 22.5101 22.976 22.5101 22.8932C22.5101 22.8103 22.4429 22.7432 22.3601 22.7432C22.2772 22.7432 22.2101 22.8103 22.2101 22.8932C22.2101 22.976 22.2772 23.0432 22.3601 23.0432Z" fill="white"/>
<path d="M25.3401 22.7432C25.3383 22.9542 25.4169 23.1581 25.5601 23.3132C25.6269 23.3879 25.7085 23.4478 25.7998 23.4891C25.891 23.5304 25.9899 23.5523 26.0901 23.5532C26.3001 23.5532 26.4901 23.4532 26.6201 23.3132C26.7632 23.1581 26.8419 22.9542 26.8401 22.7432V21.6632H25.3401V22.7432Z" fill="#003399"/>
<path d="M25.6901 22.2232C25.7729 22.2232 25.8401 22.156 25.8401 22.0732C25.8401 21.9903 25.7729 21.9232 25.6901 21.9232C25.6073 21.9232 25.5401 21.9903 25.5401 22.0732C25.5401 22.156 25.6073 22.2232 25.6901 22.2232Z" fill="white"/>
<path d="M26.5201 22.2232C26.6029 22.2232 26.6701 22.156 26.6701 22.0732C26.6701 21.9903 26.6029 21.9232 26.5201 21.9232C26.4372 21.9232 26.3701 21.9903 26.3701 22.0732C26.3701 22.156 26.4372 22.2232 26.5201 22.2232Z" fill="white"/>
<path d="M26.1001 22.6232C26.1829 22.6232 26.2501 22.556 26.2501 22.4732C26.2501 22.3903 26.1829 22.3232 26.1001 22.3232C26.0172 22.3232 25.9501 22.3903 25.9501 22.4732C25.9501 22.556 26.0172 22.6232 26.1001 22.6232Z" fill="white"/>
<path d="M25.6901 23.0432C25.7729 23.0432 25.8401 22.976 25.8401 22.8932C25.8401 22.8103 25.7729 22.7432 25.6901 22.7432C25.6073 22.7432 25.5401 22.8103 25.5401 22.8932C25.5401 22.976 25.6073 23.0432 25.6901 23.0432Z" fill="white"/>
<path d="M26.5201 23.0432C26.6029 23.0432 26.6701 22.976 26.6701 22.8932C26.6701 22.8103 26.6029 22.7432 26.5201 22.7432C26.4372 22.7432 26.3701 22.8103 26.3701 22.8932C26.3701 22.976 26.4372 23.0432 26.5201 23.0432Z" fill="white"/>
<path d="M23.2601 25.3232C23.2583 25.5343 23.3369 25.7381 23.4801 25.8932C23.5469 25.9679 23.6285 26.0278 23.7198 26.0691C23.811 26.1104 23.9099 26.1323 24.0101 26.1332C24.2201 26.1332 24.4101 26.0332 24.5401 25.8932C24.6832 25.7381 24.7619 25.5343 24.7601 25.3232V24.2432H23.2601V25.3232Z" fill="#003399"/>
<path d="M23.6101 24.8032C23.6929 24.8032 23.7601 24.736 23.7601 24.6532C23.7601 24.5704 23.6929 24.5032 23.6101 24.5032C23.5272 24.5032 23.4601 24.5704 23.4601 24.6532C23.4601 24.736 23.5272 24.8032 23.6101 24.8032Z" fill="white"/>
<path d="M24.4401 24.8032C24.5229 24.8032 24.5901 24.736 24.5901 24.6532C24.5901 24.5704 24.5229 24.5032 24.4401 24.5032C24.3572 24.5032 24.2901 24.5704 24.2901 24.6532C24.2901 24.736 24.3572 24.8032 24.4401 24.8032Z" fill="white"/>
<path d="M24.0201 25.2032C24.1029 25.2032 24.1701 25.136 24.1701 25.0532C24.1701 24.9704 24.1029 24.9032 24.0201 24.9032C23.9372 24.9032 23.8701 24.9704 23.8701 25.0532C23.8701 25.136 23.9372 25.2032 24.0201 25.2032Z" fill="white"/>
<path d="M23.6101 25.6232C23.6929 25.6232 23.7601 25.5561 23.7601 25.4732C23.7601 25.3904 23.6929 25.3232 23.6101 25.3232C23.5272 25.3232 23.4601 25.3904 23.4601 25.4732C23.4601 25.5561 23.5272 25.6232 23.6101 25.6232Z" fill="white"/>
<path d="M24.4401 25.6232C24.5229 25.6232 24.5901 25.5561 24.5901 25.4732C24.5901 25.3904 24.5229 25.3232 24.4401 25.3232C24.3572 25.3232 24.2901 25.3904 24.2901 25.4732C24.2901 25.5561 24.3572 25.6232 24.4401 25.6232Z" fill="white"/>
</g>
<defs>
<clipPath id="clip0_72_249">
<rect width="60" height="45" fill="white"/>
</clipPath>
</defs>
</svg>
